<svg width="48" height="49" viewBox="0 0 48 49" fill="none" xmlns="http://www.w3.org/2000/svg">
<g clip-path="url(#clip0)">
<path d="M16.669 20.3802C17.0356 20.0136 17.0356 19.42 16.669 19.0545C16.3035 18.6879 15.7099 18.6879 15.3433 19.0545C14.9767 19.42 14.9767 20.0136 15.3433 20.3802C15.7099 20.7456 16.3035 20.7456 16.669 20.3802Z" fill="#3400DA"/>
<path d="M25.9507 21.7059C27.0472 20.6094 27.0472 18.8252 25.9507 17.7288C24.8517 16.6298 23.072 16.6294 21.973 17.7288C20.8736 18.8278 20.8736 20.6065 21.973 21.7059C23.0694 22.8023 24.8539 22.8027 25.9507 21.7059ZM23.2986 19.0545C23.6652 18.6883 24.2585 18.6883 24.6251 19.0545C24.9902 19.42 24.9902 20.0143 24.6251 20.3798C24.2592 20.7453 23.6641 20.7457 23.2986 20.3798C22.9328 20.0143 22.9313 19.4218 23.2986 19.0545Z" fill="#3400DA"/>
<path d="M21.973 28.3342C20.8736 29.4336 20.8736 31.213 21.973 32.3124C23.072 33.4114 24.8514 33.4118 25.9507 32.3124C27.0475 31.2156 27.0475 29.431 25.9507 28.3342C24.8517 27.2356 23.072 27.2352 21.973 28.3342ZM24.6251 30.9867C24.2585 31.3529 23.6648 31.3529 23.2986 30.9867C22.9328 30.6209 22.9313 30.0276 23.2986 29.6603C23.6652 29.2937 24.2585 29.2941 24.6251 29.6603C24.9905 30.0258 24.9905 30.6209 24.6251 30.9867Z" fill="#3400DA"/>
<path d="M16.413 26.5299C16.5144 27.0382 17.0088 27.3666 17.516 27.2652L30.774 24.6131C31.2815 24.5117 31.6107 24.0176 31.5093 23.5101C31.4079 23.0021 30.9138 22.6733 30.4063 22.7747L17.1484 25.4268C16.6404 25.5283 16.3112 26.0223 16.413 26.5299Z" fill="#3400DA"/>
<path d="M28.4998 6.28503C28.2512 6.28503 28.0128 6.38354 27.837 6.55933L17.9944 16.402C17.6282 16.7682 17.6282 17.3618 17.9944 17.728C18.3606 18.0942 18.9542 18.0942 19.32 17.728L28.4998 8.54822L40.4317 20.4805L19.3849 41.5273L7.45263 29.5955L14.017 23.0311C14.3832 22.6653 14.3832 22.0717 14.017 21.7054C13.6507 21.3396 13.0571 21.3396 12.6909 21.7054L5.46411 28.9326C5.0979 29.2985 5.0979 29.8921 5.46411 30.2583L18.722 43.5162C19.0882 43.8824 19.6815 43.8824 20.0477 43.5162L42.4206 21.1433C42.7868 20.7771 42.7868 20.1835 42.4206 19.8173L29.1627 6.55933C28.9869 6.38354 28.7485 6.28503 28.4998 6.28503Z" fill="#3400DA"/>
<path d="M46.3993 1.25623L42.3753 5.27979C40.0276 3.50696 36.7855 3.47803 34.4575 5.20655L31.1616 1.81507C31.1583 1.81177 31.1554 1.80884 31.1521 1.80555C30.0586 0.712041 28.2803 0.700322 27.1736 1.80701L0.824385 28.2698C-0.274612 29.3688 -0.274978 31.1486 0.824385 32.2479L4.54289 35.9661C3.71232 38.3431 4.31144 41.0381 6.12748 42.8534C7.94315 44.6698 10.6381 45.2686 13.0152 44.4387L16.7337 48.1569C17.8327 49.2559 19.6132 49.2555 20.71 48.1583L47.1756 21.8062C48.275 20.7068 48.275 18.9281 47.1756 17.8291C47.1723 17.8258 47.1694 17.8229 47.1661 17.8196L43.775 14.5244C45.4973 12.2122 45.4907 8.96863 43.7014 6.60584L47.7249 2.58228C48.0912 2.21607 48.0912 1.62244 47.7249 1.25623C47.3587 0.890019 46.7655 0.890019 46.3993 1.25623ZM41.826 13.9187C41.6488 14.0963 41.5499 14.3373 41.5514 14.5885C41.5532 14.8394 41.6557 15.0792 41.8356 15.2539L45.8536 19.1588C46.2173 19.5265 46.2132 20.1168 45.851 20.4786L19.3858 46.8308C19.0199 47.1967 18.4248 47.1967 18.0593 46.8308L13.9014 42.6732C13.7219 42.4934 13.4817 42.3986 13.2386 42.3986C13.1038 42.3986 12.9679 42.4275 12.8405 42.4872C11.0376 43.3331 8.87259 42.9475 7.45353 41.5274C6.03336 40.1083 5.64774 37.9436 6.49369 36.1408C6.66141 35.783 6.58744 35.3589 6.30802 35.0795L2.15043 30.9219C1.78459 30.556 1.78459 29.9613 2.15153 29.594L28.5011 3.13123C28.8658 2.76685 29.4554 2.76465 29.8224 3.1272L33.7269 7.14527C34.077 7.50562 34.6765 7.54078 35.0625 7.15516C36.6672 5.54969 39.1802 5.3783 41.0314 6.62378L39.6562 7.99891C38.6107 7.50086 37.3194 7.6836 36.4552 8.54786C35.3588 9.64466 35.3588 11.4292 36.4552 12.5256C37.5542 13.6246 39.334 13.625 40.4333 12.5256C41.3174 11.6416 41.4723 10.3449 40.9834 9.32349L42.3581 7.94874C43.5941 9.77833 43.4516 12.2935 41.826 13.9187ZM39.1073 9.87354C39.4731 10.2394 39.4746 10.8326 39.1073 11.2C38.7411 11.5662 38.1474 11.5662 37.7812 11.2C37.4154 10.8341 37.4154 10.239 37.7809 9.87354C38.1467 9.50843 38.7418 9.5077 39.1073 9.87354Z" fill="#3400DA"/>
</g>
<defs>
<clipPath id="clip0">
<rect width="48" height="48" fill="white" transform="translate(0 0.981201)"/>
</clipPath>
</defs>
</svg>
