<svg width="47" height="47" viewBox="0 0 47 47" fill="none" xmlns="http://www.w3.org/2000/svg">
<g clip-path="url(#clip0)">
<path d="M6.67047 33.9149C6.74728 33.9906 6.83976 34.0492 6.94156 34.0857V45.4563C6.94156 45.8781 7.2835 46.22 7.70524 46.22H42.8347C43.2565 46.22 43.5984 45.8781 43.5984 45.4563V27.1279C43.5984 26.7062 43.2565 26.3642 42.8347 26.3642H39.0103C39.7844 25.3544 40.5437 24.1358 40.5437 23.3095C40.5429 22.0394 39.7561 20.9025 38.5681 20.4539C37.3797 20.0053 36.038 20.3386 35.1979 21.291C34.3577 20.3386 33.0161 20.0053 31.8277 20.4539C30.6396 20.9025 29.8528 22.0394 29.8521 23.3095C29.8521 24.1358 30.6113 25.3544 31.3854 26.3642H15.3007L18.5497 23.1156L23.9496 17.7153L34.7504 6.91451C35.0483 6.61657 35.0483 6.13293 34.7504 5.83499L29.3505 0.434757C29.0474 0.148375 28.5734 0.148375 28.2706 0.434757L21.1544 7.55067C18.6605 5.5982 15.6881 4.37772 14.2301 5.83499C13.2733 6.79183 13.475 8.40534 14.2782 10.1061L10.9427 13.4427C9.24119 12.6399 7.62731 12.4378 6.67047 13.3954C5.21395 14.8508 6.43443 17.8246 8.38727 20.3181L1.27061 27.4333C0.972296 27.7316 0.972296 28.2149 1.27061 28.5132L6.67047 33.9149ZM31.3794 23.3095C31.3794 22.466 32.0633 21.7821 32.9068 21.7821C33.7503 21.7821 34.4342 22.466 34.4342 23.3095V23.5157C34.4342 23.9374 34.7761 24.2794 35.1979 24.2794C35.6196 24.2794 35.9616 23.9374 35.9616 23.5157V23.3095C35.9616 22.466 36.6454 21.7821 37.4889 21.7821C38.3324 21.7821 39.0163 22.466 39.0163 23.3095C38.5781 24.458 37.8998 25.4995 37.0262 26.3642H33.3696C32.4963 25.4995 31.8176 24.458 31.3794 23.3095ZM29.0884 27.8916H42.071V44.6926H29.0884V27.8916ZM22.9789 27.8916H27.561V44.6926H22.9789V27.8916ZM21.4516 27.8916V44.6926H8.46893V33.2374H8.42679L13.8147 27.8502V27.8916H21.4516ZM18.0105 21.495L13.6902 17.1747L18.0105 12.8547L22.3305 17.1747L18.0105 21.495ZM28.8106 2.0546L33.1306 6.37494L23.4104 16.0948L19.0904 11.7778L28.8106 2.0546ZM15.31 6.91451C15.4927 6.76759 15.7254 6.69749 15.9592 6.71837C16.8105 6.71837 18.2969 7.2751 20.067 8.63765L17.4706 11.2341L17.0335 11.6715C15.1892 9.27753 14.8212 7.40337 15.31 6.91451ZM15.052 11.4966C15.3253 11.9258 15.6247 12.3505 15.9469 12.7622L13.594 15.1152C13.1823 14.793 12.7579 14.4936 12.3295 14.2195L15.052 11.4966ZM7.75036 14.4753C7.93271 14.3284 8.16465 14.2579 8.39808 14.2788C9.25014 14.2788 10.7372 14.8347 12.5074 16.198L12.0703 16.6347L9.47387 19.2315C7.6288 16.8372 7.2615 14.963 7.75036 14.4753ZM12.6103 18.2545L16.9306 22.5749L7.21042 32.2951L2.89418 27.9747L12.6103 18.2545Z" fill="#3400DA"/>
<path d="M41.3067 10.5995C40.4666 9.64712 39.1249 9.31376 37.9365 9.76235C36.7485 10.2109 35.9617 11.3479 35.9609 12.618C35.9609 14.2766 39.5672 18.7274 41.3067 18.7274C43.0463 18.7274 46.6525 14.2766 46.6525 12.618C46.6518 11.3479 45.865 10.2109 44.6769 9.76235C43.4885 9.31376 42.1469 9.64712 41.3067 10.5995ZM45.1251 12.618C45.1084 13.5755 42.1718 17.0878 41.319 17.2001C40.4416 17.0871 37.5051 13.5748 37.4883 12.618C37.4883 11.7745 38.1722 11.0906 39.0157 11.0906C39.8592 11.0906 40.543 11.7745 40.543 12.618V12.8242C40.543 13.2459 40.885 13.5879 41.3067 13.5879C41.7285 13.5879 42.0704 13.2459 42.0704 12.8242V12.618C42.0704 11.7745 42.7543 11.0906 43.5978 11.0906C44.4413 11.0906 45.1251 11.7745 45.1251 12.618Z" fill="#3400DA"/>
<path d="M41.3047 2.69006C40.883 2.69006 40.541 3.03201 40.541 3.45375V4.21743H39.7774C39.3556 4.21743 39.0137 4.55938 39.0137 4.98112C39.0137 5.40286 39.3556 5.7448 39.7774 5.7448H40.541V6.50849C40.541 6.93023 40.883 7.27217 41.3047 7.27217C41.7265 7.27217 42.0684 6.93023 42.0684 6.50849V5.7448H42.8321C43.2538 5.7448 43.5958 5.40286 43.5958 4.98112C43.5958 4.55938 43.2538 4.21743 42.8321 4.21743H42.0684V3.45375C42.0684 3.03201 41.7265 2.69006 41.3047 2.69006Z" fill="#3400DA"/>
<path d="M31.3789 14.909C31.3789 15.3307 31.037 15.6726 30.6153 15.6726C30.1935 15.6726 29.8516 15.3307 29.8516 14.909C29.8516 14.4872 30.1935 14.1453 30.6153 14.1453C31.037 14.1453 31.3789 14.4872 31.3789 14.909Z" fill="#3400DA"/>
<path d="M24.5059 24.8369C24.9276 24.8369 25.2696 24.4949 25.2696 24.0732V23.3095H26.0333C26.455 23.3095 26.7969 22.9676 26.7969 22.5458C26.7969 22.1241 26.455 21.7821 26.0333 21.7821H25.2696V21.0184C25.2696 20.5967 24.9276 20.2548 24.5059 20.2548C24.0842 20.2548 23.7422 20.5967 23.7422 21.0184V21.7821H22.9785C22.5568 21.7821 22.2148 22.1241 22.2148 22.5458C22.2148 22.9676 22.5568 23.3095 22.9785 23.3095H23.7422V24.0732C23.7422 24.4949 24.0842 24.8369 24.5059 24.8369Z" fill="#3400DA"/>
<path d="M45.125 22.5458C45.125 22.9675 44.7831 23.3095 44.3613 23.3095C43.9396 23.3095 43.5977 22.9675 43.5977 22.5458C43.5977 22.124 43.9396 21.7821 44.3613 21.7821C44.7831 21.7821 45.125 22.124 45.125 22.5458Z" fill="#3400DA"/>
</g>
<defs>
<clipPath id="clip0">
<rect width="46" height="46" fill="white" transform="translate(0.771484 0.219971)"/>
</clipPath>
</defs>
</svg>
