<svg width="53" height="54" viewBox="0 0 53 54" fill="none" xmlns="http://www.w3.org/2000/svg">
<g clip-path="url(#clip0)">
<path d="M21.045 44.6732C22.7499 44.6732 24.1367 46.0601 24.1367 47.7649C24.1367 49.4698 22.7499 50.8567 21.045 50.8567C19.3401 50.8567 17.9533 49.4698 17.9533 47.7649C17.9533 46.0601 19.341 44.6732 21.045 44.6732ZM21.045 49.09C21.7755 49.09 22.37 48.4955 22.37 47.7649C22.37 47.0344 21.7755 46.4399 21.045 46.4399C20.3145 46.4399 19.72 47.0344 19.72 47.7649C19.72 48.4955 20.3145 49.09 21.045 49.09Z" fill="#3400DA"/>
<path d="M17.0701 33.1896C15.1215 33.1896 13.5367 31.6049 13.5367 29.6562C13.5367 27.7075 15.1215 26.1228 17.0701 26.1228C19.0188 26.1228 20.6035 27.7075 20.6035 29.6562C20.6035 31.6049 19.0197 33.1896 17.0701 33.1896ZM17.0701 27.8895C16.0958 27.8895 15.3034 28.6819 15.3034 29.6562C15.3034 30.6305 16.0958 31.4229 17.0701 31.4229C18.0445 31.4229 18.8368 30.6305 18.8368 29.6562C18.8368 28.6819 18.0445 27.8895 17.0701 27.8895Z" fill="#3400DA"/>
<path d="M38.2707 11.1059C38.0446 11.1059 37.8185 11.0193 37.6462 10.8471L35.8795 9.08036C35.5341 8.73497 35.5341 8.1767 35.8795 7.83131C36.2249 7.48592 36.7832 7.48592 37.1286 7.83131L38.8953 9.598C39.2406 9.94339 39.2406 10.5017 38.8953 10.8471C38.723 11.0193 38.4969 11.1059 38.2707 11.1059Z" fill="#3400DA"/>
<path d="M6.46943 26.7836C6.46943 26.0063 6.77242 25.2757 7.32186 24.7263L7.81388 24.2343C6.97559 23.4922 6.47031 22.419 6.47031 21.2644C6.47031 19.0729 8.25379 17.2894 10.4454 17.2894C10.6061 17.2894 10.7652 17.3053 10.9224 17.3247C10.903 17.1666 10.8871 17.0094 10.8871 16.8477C10.8871 14.6561 12.6705 12.8726 14.8621 12.8726C15.0229 12.8726 15.1819 12.8885 15.3391 12.908C15.3197 12.7498 15.3038 12.5926 15.3038 12.431C15.3038 10.2394 17.0873 8.45589 19.2789 8.45589C19.4396 8.45589 19.5986 8.47179 19.7559 8.49123C19.7364 8.33311 19.7205 8.17587 19.7205 8.01422C19.7205 5.82263 21.504 4.03915 23.6956 4.03915C24.851 4.03915 25.9234 4.54531 26.6654 5.38273L27.3668 4.68135L30.6908 1.35731C31.8259 0.222206 33.6721 0.222206 34.8055 1.35731L45.6812 12.2331C46.8146 13.3682 46.8146 15.2135 45.6812 16.3486L42.3572 19.6726L38.02 24.0099C39.2178 24.6954 40.0367 25.9718 40.0367 27.4479C40.0367 28.8285 39.3273 30.0458 38.2549 30.7587C38.2011 30.8302 38.1383 30.9009 38.0544 30.9724L28.5531 40.4375V42.024H30.3198V53.5075H14.4196H7.35278V42.024H9.11947V39.3475C7.42963 37.9156 6.46943 35.8565 6.46943 33.6313C6.46943 32.0943 6.94909 30.6014 7.82625 29.3453L7.32186 28.8409C6.77242 28.2915 6.46943 27.5609 6.46943 26.7836ZM8.23613 21.2644C8.23613 21.9429 8.54883 22.5709 9.06382 22.9843L12.1653 19.8829C11.7519 19.3679 11.1229 19.0552 10.4454 19.0552C9.22724 19.0561 8.23613 20.0463 8.23613 21.2644ZM12.6529 16.8477C12.6529 17.5261 12.9656 18.1542 13.4806 18.5676L16.582 15.4661C16.1686 14.9511 15.5396 14.6384 14.8621 14.6384C13.644 14.6393 12.6529 15.6296 12.6529 16.8477ZM17.0696 12.431C17.0696 13.1094 17.3823 13.7374 17.8973 14.1508L20.9987 11.0494C20.5853 10.5344 19.9564 10.2217 19.2789 10.2217C18.0607 10.2226 17.0696 11.2128 17.0696 12.431ZM23.6947 5.80585C22.4766 5.80585 21.4863 6.79608 21.4863 8.01422C21.4863 8.69263 21.7991 9.32069 22.314 9.7341L25.4155 6.63266C25.0021 6.11855 24.3731 5.80585 23.6947 5.80585ZM44.4322 15.1004C44.8774 14.6543 44.8774 13.9291 44.4322 13.483L33.5564 2.60725C33.446 2.49683 33.317 2.41379 33.1801 2.35814C33.1183 2.33252 33.0485 2.33341 32.9831 2.31927C32.8259 2.28571 32.6704 2.28571 32.5132 2.31927C32.4478 2.33341 32.378 2.33252 32.3162 2.35814C32.1793 2.41379 32.0512 2.49683 31.9399 2.60725L29.8649 4.68223L42.3572 17.1745L44.4322 15.1004ZM28.6158 5.93128L27.5753 6.97187L23.1585 11.3886L22.6524 11.8948L18.7418 15.8053L18.2356 16.3115L14.325 20.2221L13.8189 20.7282L9.40215 25.145L8.5718 25.9753C8.12571 26.4214 8.12571 27.1458 8.5718 27.5919L8.95782 27.9788L19.4467 38.4685C19.891 38.9137 20.618 38.9155 21.0641 38.4685L28.1088 31.4229H27.229C25.0374 31.4229 23.2539 29.6395 23.2539 27.4479C23.2539 25.2563 25.0374 23.4728 27.229 23.4728H36.0598L41.109 18.4236L28.6158 5.93128ZM36.5386 25.2943L36.172 25.2528C36.1358 25.2475 36.0996 25.2395 36.0625 25.2395H27.229C26.0109 25.2395 25.0206 26.2297 25.0206 27.4479C25.0206 28.666 26.0109 29.6562 27.229 29.6562H29.8755H32.3736H36.0625C37.2806 29.6562 38.2708 28.666 38.2708 27.4479C38.27 26.394 37.5271 25.5133 36.5386 25.2943ZM28.5531 51.7399V43.7898H21.11C18.3955 43.7898 16.1863 45.9991 16.1863 48.7136V51.7399H28.5531ZM9.11947 51.7399H14.4196V48.7136C14.4196 46.7649 15.2623 45.0141 16.5961 43.7898H9.11947V51.7399ZM9.09739 30.6173C8.53735 31.5192 8.23613 32.5625 8.23613 33.6313C8.23613 35.4466 9.07354 37.117 10.5346 38.2168L10.8862 38.4818V42.0231H21.1109H26.7873V39.6222L27.0991 39.3581C27.1389 39.3236 27.1813 39.2918 27.2581 39.2344L35.0996 31.4221H30.6078L22.314 39.7167C21.746 40.2838 21.0014 40.5674 20.2567 40.5674C19.5112 40.5674 18.7656 40.2838 18.1985 39.7167L9.09739 30.6173Z" fill="#3400DA"/>
</g>
<defs>
<clipPath id="clip0">
<rect width="53" height="53" fill="white" transform="matrix(-1 0 0 1 53 0.506592)"/>
</clipPath>
</defs>
</svg>
