<svg width="45" height="45" viewBox="0 0 45 45" fill="none" xmlns="http://www.w3.org/2000/svg">
<g clip-path="url(#clip0)">
<path d="M23.1178 21.7535C22.7818 21.4175 22.2378 21.4175 21.9018 21.7535C21.5666 22.0886 21.5666 22.6326 21.9018 22.9686C22.2378 23.3038 22.7818 23.3038 23.1178 22.9686C23.4529 22.6326 23.4529 22.0886 23.1178 21.7535Z" fill="#3400DA"/>
<path d="M34.0557 10.8153C32.3764 9.13616 29.6581 9.13607 27.9788 10.8153C26.3039 12.4901 26.3039 15.2161 27.979 16.8923C29.6545 18.5667 32.3804 18.5673 34.0557 16.8921C35.7347 15.213 35.735 12.4946 34.0557 10.8153ZM32.8403 15.6767C31.8355 16.6816 30.1997 16.6816 29.1944 15.6768C28.1893 14.6712 28.1892 13.0355 29.1942 12.0306C30.2016 11.0232 31.8327 11.023 32.8403 12.0306C33.8478 13.038 33.8479 14.6691 32.8403 15.6767Z" fill="#3400DA"/>
<path d="M43.7798 1.0923C43.611 0.9236 43.3807 0.832163 43.1413 0.841186C42.947 0.848147 38.3205 1.03412 32.821 2.97793C28.4141 4.53391 24.7409 6.76167 21.9033 9.59932C21.2675 10.2352 20.6487 10.9094 20.0567 11.6099C17.251 9.95836 15.0027 10.4762 13.5814 11.2369C10.3088 12.9883 8.2832 17.7437 8.2832 21.1451C8.28346 21.4926 8.49289 21.806 8.81395 21.939C8.92026 21.9831 9.03198 22.0045 9.14266 22.0045C9.36636 22.0045 9.5861 21.9171 9.7505 21.7527C11.4764 20.0269 13.6051 20.1348 14.3005 20.2262L14.6015 20.5272C14.0092 21.9366 13.5321 23.338 13.1821 24.7011C13.0558 25.1944 13.0984 25.7163 13.2862 26.1938C12.4588 26.5751 11.6605 27.135 10.9655 27.8301C8.75337 30.0423 8.30417 35.4335 8.28613 35.6619C8.26636 35.9126 8.35728 36.1594 8.53509 36.3372C8.69691 36.4989 8.91579 36.5889 9.14266 36.5889C9.16518 36.5889 9.18778 36.588 9.21038 36.5862C9.4388 36.5683 14.8302 36.1191 17.0423 33.907C17.7371 33.2121 18.2969 32.414 18.6782 31.5867C19.1837 31.7855 19.7039 31.81 20.1718 31.6901C21.5342 31.3403 22.9355 30.8633 24.3451 30.2709L24.646 30.5719C24.7374 31.2674 24.8453 33.3961 23.1195 35.1218C22.8738 35.3676 22.8003 35.7372 22.9333 36.0583C23.0662 36.3795 23.3796 36.5888 23.7272 36.5888C27.1286 36.5888 31.8839 34.5632 33.6353 31.2906C34.3959 29.8694 34.9138 27.6212 33.2623 24.8154C33.9624 24.2236 34.6367 23.6049 35.2729 22.9688C38.1105 20.1311 40.3382 16.4579 41.8941 12.0514C43.8381 6.55155 44.0239 1.92503 44.0309 1.73081C44.0395 1.49233 43.9485 1.26108 43.7798 1.0923ZM10.2046 19.2967C10.7384 16.7131 12.289 13.8781 14.3927 12.7522C15.7986 11.9999 17.3352 12.0736 18.9691 12.968C17.5772 14.7986 16.3671 16.7709 15.3584 18.8536C15.3456 18.8457 15.1909 18.6512 14.9036 18.5864C14.7854 18.5597 12.5116 18.0706 10.2046 19.2967ZM15.827 32.6915C14.6453 33.8732 11.8734 34.4964 10.1214 34.7509C10.3759 32.9988 10.9993 30.2269 12.1808 29.0454C12.8425 28.3837 13.6098 27.882 14.381 27.5994L17.2729 30.4914C16.9904 31.2626 16.4888 32.0298 15.827 32.6915ZM19.7448 30.0252C19.4961 30.0888 19.2081 29.9953 18.9939 29.7815C17.8821 28.6698 17.4472 28.2348 17.3107 28.0984C17.0605 27.8482 16.4468 27.2345 15.0913 25.8789C14.877 25.6642 14.7835 25.3762 14.847 25.1279C15.1223 24.056 15.4823 22.9561 15.92 21.8457L23.0266 28.9523C21.916 29.3902 20.8164 29.7501 19.7448 30.0252ZM32.1202 30.4796C30.9942 32.5833 28.1593 34.1339 25.5759 34.6677C26.3996 33.1176 26.5812 31.1444 26.2802 29.9479C26.2103 29.67 26.029 29.5302 26.0189 29.5138C28.1014 28.5052 30.0736 27.2951 31.9044 25.9032C32.7987 27.5372 32.8724 29.074 32.1202 30.4796ZM34.0577 21.7534C33.2833 22.5277 32.4495 23.2758 31.5793 23.9768C29.4874 25.6612 27.1849 27.0879 24.7285 28.2237L16.6487 20.144C17.7844 17.6874 19.2112 15.385 20.8954 13.2933C21.597 12.4225 22.345 11.5886 23.119 10.8146C25.6649 8.26866 28.9506 6.24243 32.8876 4.78391L40.0884 11.9848C38.6301 15.9216 36.6038 19.2074 34.0577 21.7534ZM40.7068 10.1723L34.7001 4.16559C37.9727 3.14912 40.8197 2.7685 42.2407 2.63169C42.1038 4.05301 41.7231 6.90003 40.7068 10.1723Z" fill="#3400DA"/>
<path d="M20.6883 36.3369C20.3526 36.0013 19.8084 36.0015 19.4729 36.3371L17.0426 38.7683C16.7071 39.1039 16.7072 39.6481 17.0428 39.9836C17.3785 40.3191 17.9227 40.3191 18.2582 39.9834L20.6885 37.5523C21.024 37.2166 21.0239 36.6724 20.6883 36.3369Z" fill="#3400DA"/>
<path d="M8.53503 24.1838C8.19953 23.8481 7.65546 23.8481 7.31971 24.1836L4.88854 26.6139C4.55287 26.9494 4.55278 27.4936 4.88828 27.8292C5.22369 28.1647 5.76776 28.1651 6.10361 27.8294L8.53477 25.3991C8.87045 25.0636 8.87053 24.5195 8.53503 24.1838Z" fill="#3400DA"/>
<path d="M14.6108 37.553C14.2753 37.2174 13.7311 37.2174 13.3954 37.5529L7.57403 43.3734C7.23836 43.709 7.23836 44.2532 7.57394 44.5887C7.90936 44.9243 8.4536 44.9245 8.78927 44.5888L14.6107 38.7683C14.9463 38.4327 14.9463 37.8886 14.6108 37.553Z" fill="#3400DA"/>
<path d="M7.73575 37.553C7.40025 37.2174 6.85601 37.2174 6.52043 37.5529L0.69903 43.3734C0.363359 43.709 0.363359 44.2532 0.698944 44.5887C1.03436 44.9243 1.5786 44.9245 1.91427 44.5888L7.73567 38.7683C8.07134 38.4327 8.07134 37.8886 7.73575 37.553Z" fill="#3400DA"/>
<path d="M7.31879 30.2602C6.98329 29.9247 6.43905 29.9247 6.10346 30.2602L0.282928 36.0816C-0.0526571 36.4173 -0.0526571 36.9614 0.283014 37.297C0.618599 37.6326 1.16275 37.6326 1.49834 37.297L7.31888 31.4756C7.65446 31.1399 7.65446 30.5958 7.31879 30.2602Z" fill="#3400DA"/>
<path d="M26.7643 18.107C26.4286 17.7715 25.8846 17.7715 25.5489 18.107L24.3337 19.3222C23.9981 19.6578 23.9981 20.2019 24.3337 20.5376C24.6694 20.8732 25.2135 20.8732 25.5491 20.5376L26.7643 19.3224C27.0999 18.9869 27.0999 18.4427 26.7643 18.107Z" fill="#3400DA"/>
</g>
<defs>
<clipPath id="clip0">
<rect width="44" height="44" fill="white" transform="translate(0.03125 0.840576)"/>
</clipPath>
</defs>
</svg>
