<svg width="154" height="19" viewBox="0 0 154 19" fill="none" xmlns="http://www.w3.org/2000/svg">
<path d="M0 18.2709V0.752076H6.71323C9.01847 0.752076 10.7786 1.16812 11.9935 2.0002C13.2188 2.82225 13.8314 4.01523 13.8314 5.57914C13.8314 6.37112 13.5978 7.09794 13.1305 7.75959C12.6736 8.41122 11.9727 8.91248 11.0278 9.26335C12.0246 9.49393 12.8138 9.97012 13.3953 10.6919C13.9768 11.4037 14.2676 12.2558 14.2676 13.2483C14.2676 14.8824 13.6809 16.1305 12.5075 16.9927C11.3341 17.8448 9.59998 18.2709 7.30512 18.2709H0ZM3.78496 10.6468V15.3536H7.33627C8.39544 15.3536 9.18462 15.1431 9.70382 14.722C10.223 14.2909 10.4826 13.7496 10.4826 13.0979C10.4826 11.514 9.54806 10.6969 7.67894 10.6468H3.78496ZM3.78496 8.09042H7.08706C8.032 8.07037 8.75887 7.8799 9.26769 7.51899C9.78689 7.15809 10.0465 6.63178 10.0465 5.94005C10.0465 5.14807 9.7765 4.57664 9.23654 4.22576C8.70695 3.87488 7.91777 3.69944 6.86899 3.69944H3.78496V8.09042Z" fill="white"/>
<path d="M21.4481 18.2709H17.6787V0.752076H21.4481V18.2709Z" fill="white"/>
<path d="M29.1426 15.3536H37.7872V18.2709H25.3576V0.752076H29.1426V15.3536Z" fill="white"/>
<path d="M44.0021 15.3536H52.6467V18.2709H40.2171V0.752076H44.0021V15.3536Z" fill="white"/>
<path d="M66.6806 10.6919H58.8615V15.3536H68.0202V18.2709H55.0765V0.752076H67.9734V3.69944H58.8615V7.75959H66.6806V10.6919Z" fill="white"/>
<path d="M84.9824 3.69944H78.9701V18.2709H75.1851V3.69944H69.2507V0.752076H84.9824V3.69944Z" fill="white"/>
<path d="M91.4152 18.2709H87.6459V0.752076H91.4152V18.2709Z" fill="white"/>
<path d="M110.465 12.4363C110.288 14.3511 109.509 15.8448 108.128 16.9175C106.758 17.9801 104.946 18.5115 102.692 18.5115C100.242 18.5115 98.2998 17.7596 96.8668 16.2558C95.4338 14.7521 94.7173 12.6619 94.7173 9.98516V8.9626C94.7173 7.26837 95.0444 5.78466 95.6986 4.51147C96.3528 3.22827 97.2926 2.2408 98.5179 1.54907C99.7432 0.857339 101.166 0.511475 102.786 0.511475C105.008 0.511475 106.794 1.05784 108.144 2.15057C109.494 3.2433 110.273 4.7621 110.48 6.70696H106.695C106.571 5.58416 106.181 4.7621 105.527 4.2408C104.883 3.70947 103.969 3.44381 102.786 3.44381C99.9301 3.44381 98.5023 5.29844 98.5023 9.00772V10.0904C98.5023 11.9451 98.8502 13.3285 99.5459 14.2408C100.242 15.1431 101.29 15.5942 102.692 15.5942C103.938 15.5942 104.883 15.3486 105.527 14.8573C106.171 14.3661 106.56 13.5591 106.695 12.4363H110.465Z" fill="white"/>
<path d="M119.156 11.128L117.053 13.0979V18.2709H113.268V0.752076H117.053V8.49644L118.767 6.4814L123.985 0.752076H128.657L121.726 8.58666L129 18.2709H124.483L119.156 11.128Z" fill="white"/>
<g clip-path="url(#clip0)">
<path d="M138.571 12.4733H136V18.9019H142.429V16.3304H138.571V12.4733ZM136 7.33043H138.571V3.47328H142.429V0.901855H136V7.33043ZM151.429 16.3304H147.571V18.9019H154V12.4733H151.429V16.3304ZM147.571 0.901855V3.47328H151.429V7.33043H154V0.901855H147.571Z" fill="white" stroke="white"/>
</g>
<defs>
<clipPath id="clip0">
<rect width="18" height="18" fill="white" transform="translate(136 0.511475)"/>
</clipPath>
</defs>
</svg>
