<svg width="14" height="13" viewBox="0 0 14 13" fill="none" xmlns="http://www.w3.org/2000/svg">
<path d="M3.13424 2.91688V1.10354C3.13424 0.706869 3.44591 0.395203 3.84258 0.395203C4.23924 0.395203 4.55091 0.706869 4.55091 1.10354V2.91688C4.55091 3.31354 4.23924 3.62521 3.84258 3.62521C3.44591 3.62521 3.13424 3.31354 3.13424 2.91688ZM9.22591 3.62521C9.62258 3.62521 9.93424 3.31354 9.93424 2.91688V1.10354C9.93424 0.706869 9.62258 0.395203 9.22591 0.395203C8.82924 0.395203 8.51758 0.706869 8.51758 1.10354V2.91688C8.51758 3.31354 8.82924 3.62521 9.22591 3.62521ZM13.0509 2.01019V11.5869C13.0509 11.8985 12.7959 12.1535 12.4842 12.1535H0.584245C0.272578 12.1535 0.0175781 11.8985 0.0175781 11.5869V2.01019C0.0175781 1.69852 0.272578 1.38687 0.584245 1.38687H1.90175C2.21342 1.38687 2.46842 1.64187 2.46842 1.95354C2.46842 2.2652 2.21342 2.5202 1.90175 2.5202H1.13675V4.92854H11.9034V2.5202H11.1526C10.8409 2.5202 10.5859 2.2652 10.5859 1.95354C10.5859 1.64187 10.8409 1.38687 11.1526 1.38687H12.4701C12.7959 1.38687 13.0509 1.69852 13.0509 2.01019ZM11.9176 11.0202V5.9202H1.15091V11.0202H11.9176ZM5.64174 2.5202H7.42675C7.73842 2.5202 7.99342 2.2652 7.99342 1.95354C7.99342 1.64187 7.73842 1.38687 7.42675 1.38687H5.64174C5.33007 1.38687 5.07507 1.64187 5.07507 1.95354C5.07507 2.2652 5.33007 2.5202 5.64174 2.5202Z" fill="#D7D7D7"/>
</svg>
