<svg width="11" height="15" viewBox="0 0 11 15" fill="none" xmlns="http://www.w3.org/2000/svg">
<path d="M8.72138 1.76435C7.91388 0.999349 6.78054 0.579346 5.54804 0.579346C4.31554 0.579346 3.18221 0.999349 2.37471 1.76435C1.39721 2.69435 0.873043 4.08935 0.873043 5.81435C0.873043 9.57935 4.96722 14.0043 5.15139 14.1843C5.26472 14.3043 5.40638 14.3644 5.54804 14.3644C5.68971 14.3644 5.84555 14.3043 5.94472 14.1843C6.11472 14.0043 10.223 9.57935 10.223 5.81435C10.2089 4.08935 9.69888 2.69435 8.72138 1.76435ZM5.53388 12.8943C5.15138 12.4443 4.54222 11.6943 3.94722 10.7943C2.67222 8.87434 1.99221 7.16435 1.99221 5.82935C1.99221 2.07935 4.69805 1.77935 5.53388 1.77935C8.82055 1.77935 9.07555 4.88435 9.07555 5.82935C9.07555 8.46935 6.53971 11.7243 5.53388 12.8943ZM5.53388 3.17434C4.28721 3.17434 3.28138 4.26935 3.28138 5.60435C3.28138 6.93935 4.28721 8.03435 5.53388 8.03435C6.78055 8.03435 7.78638 6.93935 7.78638 5.60435C7.78638 4.25435 6.78055 3.17434 5.53388 3.17434ZM5.53388 6.96934C4.83971 6.96934 4.27304 6.35435 4.27304 5.58935C4.27304 4.82435 4.83971 4.20935 5.53388 4.20935C6.22805 4.20935 6.79472 4.82435 6.79472 5.58935C6.79472 6.35435 6.22805 6.96934 5.53388 6.96934Z" fill="#D7D7D7"/>
</svg>
