<svg width="17" height="10" viewBox="0 0 17 10" fill="none" xmlns="http://www.w3.org/2000/svg">
<path d="M1.53203 0.576765C1.14703 0.576765 0.832031 0.816765 0.832031 1.1101L0.832031 9.1101C0.832031 9.40343 1.14703 9.64343 1.53203 9.64343H15.532C15.917 9.64343 16.232 9.40343 16.232 9.1101V1.1101C16.232 0.816765 15.917 0.576765 15.532 0.576765H1.53203ZM14.832 1.64343V8.57677H2.23203V1.64343H14.832ZM12.2945 7.24343C11.962 7.24343 11.682 7.0301 11.682 6.77677V3.60343C11.682 3.3501 11.962 3.13677 12.2945 3.13677C12.627 3.13677 12.907 3.3501 12.907 3.60343V6.77677C12.907 7.0301 12.627 7.24343 12.2945 7.24343ZM9.84453 7.24343C9.51203 7.24343 9.23203 7.0301 9.23203 6.77677V3.60343C9.23203 3.3501 9.51203 3.13677 9.84453 3.13677C10.177 3.13677 10.457 3.3501 10.457 3.60343V6.77677C10.457 7.0301 10.177 7.24343 9.84453 7.24343ZM4.76953 3.1101C4.43703 3.1101 4.15703 3.32343 4.15703 3.57677V6.77677C4.15703 7.0301 4.43703 7.24343 4.76953 7.24343H7.21953C7.55203 7.24343 7.83203 7.0301 7.83203 6.77677V3.57677C7.83203 3.32343 7.55203 3.1101 7.21953 3.1101H4.76953ZM5.38203 6.3101V4.04343H6.60703V6.3101H5.38203Z" fill="#D7D7D7"/>
</svg>
