<svg width="11" height="11" viewBox="0 0 11 11" fill="none" xmlns="http://www.w3.org/2000/svg">
<path d="M5.57956 6.74679C7.30622 6.74679 8.71789 5.33512 8.71789 3.59679C8.71789 1.85846 7.30622 0.446789 5.57956 0.446789C3.85289 0.446789 2.44122 1.85846 2.44122 3.59679C2.44122 5.33512 3.85289 6.74679 5.57956 6.74679ZM5.57956 1.36844C6.79289 1.36844 7.78456 2.36011 7.78456 3.58511C7.78456 4.81011 6.79289 5.80178 5.57956 5.80178C4.36622 5.80178 3.37456 4.81011 3.37456 3.58511C3.37456 2.36011 4.36622 1.36844 5.57956 1.36844ZM7.03789 7.05011C6.88622 7.00344 6.71122 7.03845 6.59456 7.14345L5.57956 8.00677L4.56456 7.14345C4.43622 7.03845 4.27289 7.00344 4.12122 7.05011C3.46789 7.26011 0.212891 8.38011 0.212891 10.0018C0.212891 10.2584 0.422891 10.4684 0.679557 10.4684H10.4796C10.7362 10.4684 10.9462 10.2584 10.9462 10.0018C10.9462 8.38011 7.69122 7.26011 7.03789 7.05011ZM1.39122 9.53511C1.90456 8.98678 3.14122 8.38012 4.16789 8.03012L5.27622 8.97511C5.45122 9.12677 5.70789 9.12677 5.88289 8.97511L6.99122 8.03012C8.01789 8.39179 9.25456 8.99845 9.76789 9.53511H1.39122Z" fill="white"/>
</svg>
