<svg width="12" height="11" viewBox="0 0 12 11" fill="none" xmlns="http://www.w3.org/2000/svg">
<path d="M8.82082 10.4275C8.72748 10.4275 8.64581 10.4042 8.56415 10.3575L5.93915 8.65417L3.31415 10.3575C3.15081 10.4625 2.94081 10.4508 2.78915 10.3458C2.63748 10.2292 2.56748 10.0308 2.61415 9.84416L3.44248 6.92749L0.980815 4.85082C0.840815 4.73415 0.78248 4.53583 0.840813 4.34916C0.899146 4.17416 1.06248 4.04582 1.24915 4.02249L4.20082 3.8125L5.53081 0.907496C5.61248 0.744163 5.77582 0.639157 5.95082 0.639157C6.13748 0.639157 6.30082 0.744163 6.37082 0.907496L7.70082 3.8125L10.6525 4.02249C10.8392 4.03416 11.0025 4.1625 11.0608 4.34916C11.1192 4.52416 11.0608 4.72249 10.9208 4.85082L8.45915 6.92749L9.28748 9.84416C9.34582 10.0308 9.27582 10.2292 9.11248 10.3458C9.01915 10.3925 8.92582 10.4275 8.82082 10.4275ZM5.93915 7.62749C6.03248 7.62749 6.11415 7.65082 6.19582 7.69749L8.03915 8.8875L7.46748 6.86916C7.42082 6.69416 7.47915 6.5075 7.61915 6.39083L9.42748 4.8625L7.35082 4.71083C7.17582 4.69916 7.03582 4.59415 6.95415 4.44249L5.93915 2.21416L4.92415 4.44249C4.85415 4.59415 4.70248 4.69916 4.52748 4.71083L2.45082 4.8625L4.25915 6.39083C4.39915 6.5075 4.45748 6.69416 4.41081 6.86916L3.83915 8.8875L5.68248 7.69749C5.76415 7.65082 5.84581 7.62749 5.93915 7.62749Z" fill="white"/>
</svg>
